<svg width="505" height="504" viewBox="0 0 505 504" fill="none" xmlns="http://www.w3.org/2000/svg">
<path d="M124.2 251.66C124.2 297.676 148.751 340.195 188.602 363.2C228.45 386.208 277.551 386.208 317.402 363.2C357.254 340.192 381.804 297.673 381.804 251.66C374.745 80.41 131.264 80.36 124.204 251.66H124.2ZM163.848 251.66C163.848 219.808 180.84 190.379 208.426 174.453C236.008 158.527 269.992 158.527 297.574 174.453C325.16 190.379 342.152 219.808 342.152 251.66C337.281 370.21 169.002 370.27 163.852 251.66H163.848Z" fill="white"/>
<path d="M386.89 0H119.1C87.784 0.03125 57.76 12.48 35.62 34.625C13.475 56.766 1.026 86.789 0.994995 118.105V385.895C1.02625 417.211 13.475 447.235 35.62 469.375C57.761 491.52 87.784 503.969 119.1 504H386.89C418.206 503.969 448.23 491.52 470.37 469.375C492.515 447.234 504.964 417.211 504.995 385.895V118.105C504.964 86.789 492.515 56.765 470.37 34.625C448.229 12.48 418.206 0.031 386.89 0V0ZM465.796 385.89C465.812 406.824 457.503 426.902 442.702 441.702C427.901 456.502 407.823 464.811 386.89 464.796H119.1C98.166 464.812 78.088 456.503 63.288 441.702C48.488 426.901 40.179 406.823 40.194 385.89V118.1C40.1784 97.166 48.487 77.088 63.288 62.288C78.089 47.488 98.167 39.179 119.1 39.194H386.89C407.824 39.1784 427.902 47.487 442.702 62.288C457.502 77.089 465.811 97.167 465.796 118.1V385.89Z" fill="white"/>
<path d="M393 89.6C387.059 89.6 381.363 91.9594 377.16 96.1586C372.961 100.362 370.601 106.057 370.601 111.999C370.601 117.94 372.961 123.636 377.16 127.839C381.363 132.038 387.058 134.397 393 134.397C398.942 134.397 404.637 132.038 408.84 127.839C413.039 123.635 415.399 117.94 415.399 111.999C415.399 106.057 413.039 100.362 408.84 96.1586C404.637 91.9594 398.942 89.6 393 89.6V89.6Z" fill="white"/>
</svg>
