<svg width="482" height="482" viewBox="0 0 482 482" fill="none" xmlns="http://www.w3.org/2000/svg">
<path d="M67.4 0.199001C30.42 0.199001 0.200989 30.418 0.200989 67.398C0.200989 104.382 30.42 134.601 67.4 134.601C104.384 134.601 134.603 104.382 134.603 67.398C134.603 30.418 104.384 0.199001 67.4 0.199001ZM67.4 22.597C92.275 22.597 112.201 42.523 112.201 67.398C112.201 92.273 92.275 112.199 67.4 112.199C42.525 112.199 22.599 92.273 22.599 67.398C22.599 42.523 42.525 22.597 67.4 22.597V22.597ZM358.6 145.797C322.788 145.797 298.448 161.024 280.202 178.524V168.2C280.202 162.337 274.866 157.001 269.003 157.001H179.401C173.538 157.001 168.202 162.337 168.202 168.2V470.6C168.202 476.463 173.538 481.799 179.401 481.799H274.6C280.463 481.799 285.799 476.463 285.799 470.6V302.6C285.799 288.424 290.268 274.991 296.822 265.85C303.384 256.709 311.31 252.202 319.4 252.202H330.599C338.689 252.202 346.615 256.71 353.173 265.85C359.736 274.995 364.2 288.428 364.2 302.604V470.604C364.2 476.467 369.536 481.803 375.399 481.803H470.598C476.461 481.803 481.797 476.467 481.797 470.604V409.002C481.879 403.084 476.516 397.643 470.598 397.643C464.68 397.643 459.313 403.084 459.399 409.002V459.4H386.598V302.6C386.602 283.893 381.012 266.338 371.375 252.901C361.738 239.467 347.328 229.803 330.602 229.803H319.403C302.673 229.803 288.266 239.467 278.63 252.905C268.989 266.339 263.4 283.893 263.4 302.604V369.803H256.752C250.888 370.076 245.799 375.662 246.076 381.53C246.349 387.393 251.935 392.479 257.803 392.202H263.404V414.6H256.756C250.892 414.873 245.803 420.459 246.08 426.327C246.349 432.194 251.935 437.28 257.803 437.003H263.404V459.401H190.603V179.401H257.802V207.401C257.798 212.006 260.947 216.452 265.295 217.975C269.642 219.502 274.877 218.002 277.752 214.401C296.557 190.96 316.592 168.202 358.604 168.202C398.776 168.202 422.752 178.53 437.702 196.026C452.651 213.526 459.401 240.139 459.401 274.604V364.206C459.319 370.124 464.682 375.565 470.6 375.565C476.518 375.565 481.885 370.123 481.799 364.206L481.802 274.604C481.802 237.268 474.803 204.854 454.854 181.502C434.901 158.15 402.827 145.803 358.604 145.803L358.6 145.797ZM21.55 157C16.0422 157.52 11.374 162.668 11.398 168.199V470.599C11.398 476.462 16.7339 481.798 22.597 481.798H117.796C123.659 481.798 128.995 476.462 128.995 470.599V168.199C128.995 162.336 123.659 157 117.796 157H21.546H21.55ZM33.8 179.398H106.601V369.798H99.9526C94.0893 370.071 88.9996 375.657 89.2766 381.525C89.5461 387.392 95.136 392.478 101 392.201H106.601V414.599H99.9528C94.0895 414.872 88.9998 420.458 89.2768 426.326C89.5463 432.193 95.1362 437.279 101 437.002H106.601V459.4H33.8004L33.8 179.398Z" fill="white"/>
</svg>
