<svg width="244" height="261" viewBox="0 0 244 261" fill="none" xmlns="http://www.w3.org/2000/svg">
<path d="M243.63 95.84C243.568 79.402 237.896 63.481 227.556 50.703C231.068 36.098 229.97 20.762 224.423 6.80099C223.329 4.11349 221.087 2.0588 218.318 1.1994C214.396 -0.144402 199.556 -2.66391 169.318 16.9334V16.9373C156.31 13.5037 142.896 11.8826 129.447 12.1209C115.978 11.8787 102.541 13.4998 89.5167 16.9373C58.4937 -3.1097 42.3648 0.136306 39.1188 1.08931C36.3336 1.98384 34.0954 4.0815 33.0133 6.8002C27.4508 20.7142 26.314 36.0072 29.7671 50.5932C19.0871 63.3042 13.3961 79.4642 13.7511 96.0622C13.7511 158 49.1961 176.703 81.6771 183.312C80.0091 187.39 78.8607 191.66 78.263 196.023C78.2045 196.488 78.2045 196.961 78.263 197.426V214.559C48.697 217.023 42.3681 199.719 41.7511 197.758V197.761C41.6065 197.304 41.4386 196.855 41.2432 196.414C35.5323 184.766 25.4812 175.816 13.2432 171.496C8.11044 169.781 2.55523 172.55 0.841235 177.683C-0.873565 182.816 1.89593 188.371 7.02873 190.089C13.8099 192.538 19.4667 197.374 22.9347 203.694C26.8566 216.405 42.8727 236.51 78.1497 234.268V250.397C78.1497 255.811 82.5364 260.198 87.9505 260.198C93.3607 260.198 97.7513 255.811 97.7513 250.397V198.151C98.4935 192.444 100.978 187.108 104.861 182.862C107.642 180.261 108.65 176.28 107.447 172.667C106.244 169.058 103.044 166.476 99.263 166.062C65.103 162.085 33.521 150.832 33.521 95.6707H33.5171C33.0601 82.2097 38.2593 69.1707 47.8531 59.7177C50.4547 56.9208 51.314 52.9247 50.0953 49.3037C46.7945 39.7178 46.5797 29.3387 49.4781 19.6237C61.5011 22.3385 72.7941 27.6315 82.5721 35.1357C85.119 36.8193 88.2948 37.2529 91.1971 36.3115C103.642 32.5224 116.611 30.7646 129.615 31.1045C142.595 30.7647 155.549 32.5225 167.974 36.3115C170.876 37.2607 174.056 36.8271 176.599 35.1357C186.017 27.9169 196.798 22.6787 208.294 19.7337C211.15 29.5579 210.896 40.0227 207.564 49.6947C206.45 52.9799 207.177 56.6127 209.47 59.2142C218.739 69.1126 223.99 82.1122 224.197 95.6712C224.197 150.718 190.99 162.144 158.455 166.062C154.467 166.508 151.158 169.347 150.119 173.222C149.08 177.097 150.521 181.211 153.752 183.593C157.224 186.226 161.256 193.616 161.256 205.991V250.343C161.256 255.758 165.642 260.144 171.053 260.144C176.467 260.144 180.853 255.758 180.853 250.343V205.991C180.955 198.191 179.529 190.448 176.654 183.198C202.974 177.601 243.631 160.296 243.631 95.8394L243.63 95.84Z" fill="white"/>
</svg>
